<?xml version="1.0" encoding="utf-8"?>
<!-- Generator: Adobe Illustrator 19.1.0, SVG Export Plug-In . SVG Version: 6.00 Build 0)  -->
<svg version="1.0" id="Ebene_1" xmlns="http://www.w3.org/2000/svg" xmlns:xlink="http://www.w3.org/1999/xlink" x="0px" y="0px"
	 viewBox="282.5 255.5 277 112.8" enable-background="new 282.5 255.5 277 112.8" xml:space="preserve">
<g id="Ebene_2">
</g>
<g id="Ebene_3" display="none">
</g>
<g id="Ebene_1_1_">
	<g>
		<path fill="#FFFFFF" d="M342.2,256c4.9,0,10,0.8,15.4,2.4s10,3.6,13.7,6L357.1,286c-1.4-1-3.7-1.9-6.7-2.8s-5.8-1.3-8.2-1.3
			c-4.8,0-8.8,0.5-12.2,1.5c-3.4,1-6.2,2.3-8.4,3.8c-2.2,1.5-4,3.2-5.3,5s-2.4,3.5-3.2,5.1c-1.2,2.4-2,4.9-2.6,7.4s-1,4.9-1.3,7.1
			s-0.5,4.3-0.5,6.3c-0.1,1.9-0.1,3.4-0.1,4.4v41.9h-0.2h-25.7h-0.2V258.6h25.9v6.5c0-0.1,0.1-0.2,0.2-0.2
			C317.9,258.9,329.1,256,342.2,256z"/>
		<path fill="#FFFFFF" d="M369.6,343.7c0,6.8-2.4,12.6-7.2,17.4c-4.8,4.8-10.7,7.2-17.6,7.2c-6.8,0-12.6-2.4-17.4-7.2
			c-4.8-4.8-7.2-10.6-7.2-17.4c0-7,2.4-12.8,7.2-17.6c4.8-4.8,10.6-7.2,17.4-7.2c7,0,12.8,2.4,17.6,7.2
			C367.2,330.9,369.6,336.8,369.6,343.7z"/>
		<path fill="#FFFFFF" d="M544.6,270.9c4.9,4.9,8.6,10.5,11.1,16.7c2.5,6.3,3.8,12.8,3.8,19.8v57h-25.9v-57c0-3.6-0.6-6.9-1.9-10
			c-1.3-3.1-3.1-5.8-5.4-8.2c-2.3-2.4-5-4.2-8-5.6s-6.3-2.1-9.7-2.1c-3.5,0-6.7,0.7-9.7,2.1s-5.7,3.2-8,5.6s-4.1,5.1-5.4,8.2
			s-1.9,6.4-1.9,10v57h-25.9v-57c0-3.6-0.6-6.9-1.9-10s-3.1-5.8-5.4-8.2c-2.3-2.4-5-4.2-8-5.6s-6.3-2.1-9.7-2.1
			c-3.5,0-6.7,0.7-9.7,2.1s-5.7,3.2-8,5.6s-4.1,5.1-5.4,8.2s-1.9,6.4-1.9,10v57h-2.4h-23.5h-0.2v-108h23.8v7.3
			c8.3-5.5,17.5-8.2,27.4-8.2c6.9,0,13.4,1.3,19.5,3.9s11.6,6.4,16.5,11.4l1.9,1.9l1.9-1.9c4.8-5,10.2-8.9,16.4-11.4
			c6.2-2.6,12.7-3.9,19.6-3.9s13.4,1.3,19.5,3.9C534.2,262,539.7,265.8,544.6,270.9z"/>
	</g>
</g>
</svg>
